<mxfile host="Electron" modified="2024-01-17T12:25:24.374Z" agent="Mozilla/5.0 (X11; Linux x86_64) AppleWebKit/537.36 (KHTML, like Gecko) draw.io/22.1.15 Chrome/120.0.6099.109 Electron/28.1.0 Safari/537.36" etag="miPG4NuxKL9dgq0qgYV5" version="22.1.15" type="device">
  <diagram name="Page-1" id="FzBbkCSTMnkxj2Ke_Igj">
    <mxGraphModel dx="1434" dy="1662" grid="1" gridSize="10" guides="1" tooltips="1" connect="1" arrows="1" fold="1" page="1" pageScale="1" pageWidth="1100" pageHeight="850" math="0" shadow="0">
      <root>
        <mxCell id="0" />
        <mxCell id="1" parent="0" />
        <mxCell id="wj3YC0adMSgMcqP3sG2V-17" style="edgeStyle=orthogonalEdgeStyle;rounded=0;orthogonalLoop=1;jettySize=auto;html=1;exitX=0.5;exitY=0;exitDx=0;exitDy=0;" edge="1" parent="1" source="wj3YC0adMSgMcqP3sG2V-9" target="wj3YC0adMSgMcqP3sG2V-8">
          <mxGeometry relative="1" as="geometry" />
        </mxCell>
        <mxCell id="wj3YC0adMSgMcqP3sG2V-8" value="&lt;div style=&quot;text-align: right;&quot;&gt;&lt;span style=&quot;background-color: initial;&quot;&gt;&lt;b&gt;&lt;font style=&quot;font-size: 18px;&quot;&gt;NginxInstancies&lt;/font&gt;&lt;/b&gt;&lt;/span&gt;&lt;/div&gt;&lt;div style=&quot;text-align: right;&quot;&gt;&lt;br&gt;&lt;/div&gt;#src/syncer/local/synclib/types.go&lt;br&gt;#src/syncer/cmd/syncer/main.go" style="swimlane;childLayout=stackLayout;horizontal=1;startSize=80;horizontalStack=0;rounded=1;fontSize=14;fontStyle=0;strokeWidth=2;resizeParent=0;resizeLast=1;shadow=0;dashed=0;align=left;arcSize=4;whiteSpace=wrap;html=1;" vertex="1" parent="1">
          <mxGeometry x="294.13" width="355.87" height="290" as="geometry" />
        </mxCell>
        <mxCell id="wj3YC0adMSgMcqP3sG2V-9" value="&lt;div style=&quot;color: rgb(204, 204, 204); background-color: rgb(31, 31, 31); font-family: &amp;quot;Droid Sans Mono&amp;quot;, &amp;quot;monospace&amp;quot;, monospace; font-size: 14px; line-height: 19px;&quot;&gt;&lt;div&gt;&lt;div style=&quot;line-height: 19px;&quot;&gt;&lt;div&gt;type &lt;span style=&quot;color: #4ec9b0;&quot;&gt;NginxInstancies&lt;/span&gt; &lt;span style=&quot;color: #569cd6;&quot;&gt;struct&lt;/span&gt; {&lt;/div&gt;&lt;div&gt;    &lt;span style=&quot;white-space: pre;&quot;&gt;&#x9;&lt;/span&gt;Lock sync.RWMutex&lt;/div&gt;&lt;div&gt;    &lt;span style=&quot;white-space: pre;&quot;&gt;&#x9;&lt;/span&gt;Pods &lt;span style=&quot;color: #569cd6;&quot;&gt;map&lt;/span&gt;[&lt;span style=&quot;color: #4ec9b0;&quot;&gt;string&lt;/span&gt;]NginxInstance&lt;/div&gt;&lt;div&gt;}&lt;/div&gt;&lt;/div&gt;&lt;/div&gt;&lt;div&gt;&lt;br&gt;&lt;/div&gt;&lt;div&gt;type &lt;span style=&quot;color: #4ec9b0;&quot;&gt;NginxInstance&lt;/span&gt; &lt;span style=&quot;color: #569cd6;&quot;&gt;struct&lt;/span&gt; {&lt;/div&gt;&lt;div&gt;    &lt;span style=&quot;white-space: pre;&quot;&gt;&#x9;&lt;/span&gt;Address &lt;span style=&quot;color: #4ec9b0;&quot;&gt;string&lt;/span&gt;&lt;/div&gt;&lt;div&gt;    &lt;span style=&quot;white-space: pre;&quot;&gt;&#x9;&lt;/span&gt;Port    &lt;span style=&quot;color: #4ec9b0;&quot;&gt;string&lt;/span&gt;&lt;/div&gt;&lt;div&gt;}&lt;/div&gt;&lt;br&gt;&lt;/div&gt;" style="align=left;strokeColor=none;fillColor=none;spacingLeft=4;fontSize=12;verticalAlign=top;resizable=0;rotatable=0;part=1;html=1;" vertex="1" parent="wj3YC0adMSgMcqP3sG2V-8">
          <mxGeometry y="80" width="355.87" height="210" as="geometry" />
        </mxCell>
        <mxCell id="wj3YC0adMSgMcqP3sG2V-11" value="Scraper" style="rounded=1;arcSize=10;whiteSpace=wrap;html=1;align=center;" vertex="1" parent="1">
          <mxGeometry x="30" y="434.4444444444444" width="264.1260606060606" height="107.30158730158729" as="geometry" />
        </mxCell>
        <mxCell id="wj3YC0adMSgMcqP3sG2V-12" value="HTTP Handler" style="rounded=1;arcSize=10;whiteSpace=wrap;html=1;align=center;" vertex="1" parent="1">
          <mxGeometry x="583.0139393939394" y="442.69841269841265" width="264.1260606060606" height="107.30158730158729" as="geometry" />
        </mxCell>
        <mxCell id="wj3YC0adMSgMcqP3sG2V-13" value="" style="shape=flexArrow;endArrow=classic;html=1;rounded=0;" edge="1" parent="1">
          <mxGeometry width="50" height="50" relative="1" as="geometry">
            <mxPoint x="261.11030303030304" y="397.3015873015873" as="sourcePoint" />
            <mxPoint x="360.1575757575757" y="302.38095238095235" as="targetPoint" />
          </mxGeometry>
        </mxCell>
        <mxCell id="wj3YC0adMSgMcqP3sG2V-14" value="" style="shape=flexArrow;endArrow=classic;html=1;rounded=0;" edge="1" parent="1">
          <mxGeometry width="50" height="50" relative="1" as="geometry">
            <mxPoint x="541.7442424242424" y="302.38095238095235" as="sourcePoint" />
            <mxPoint x="632.5375757575757" y="409.68253968253964" as="targetPoint" />
          </mxGeometry>
        </mxCell>
        <mxCell id="wj3YC0adMSgMcqP3sG2V-23" value="Openshift World" style="rounded=1;whiteSpace=wrap;html=1;" vertex="1" parent="1">
          <mxGeometry x="40" y="720" width="800" height="90" as="geometry" />
        </mxCell>
        <mxCell id="wj3YC0adMSgMcqP3sG2V-18" value="&lt;br&gt;&lt;br&gt;&lt;br&gt;&lt;br&gt;&lt;br&gt;Openshift API" style="aspect=fixed;sketch=0;html=1;dashed=0;whitespace=wrap;fillColor=#2875E2;strokeColor=#ffffff;points=[[0.005,0.63,0],[0.1,0.2,0],[0.9,0.2,0],[0.5,0,0],[0.995,0.63,0],[0.72,0.99,0],[0.5,1,0],[0.28,0.99,0]];shape=mxgraph.kubernetes.icon2;prIcon=api" vertex="1" parent="1">
          <mxGeometry x="140" y="740" width="50" height="48" as="geometry" />
        </mxCell>
        <mxCell id="wj3YC0adMSgMcqP3sG2V-19" value="" style="shape=flexArrow;endArrow=classic;html=1;rounded=0;" edge="1" parent="1">
          <mxGeometry width="50" height="50" relative="1" as="geometry">
            <mxPoint x="160.00030303030303" y="704.9215873015874" as="sourcePoint" />
            <mxPoint x="160" y="570" as="targetPoint" />
          </mxGeometry>
        </mxCell>
        <mxCell id="wj3YC0adMSgMcqP3sG2V-20" value="" style="aspect=fixed;sketch=0;html=1;dashed=0;whitespace=wrap;fillColor=#2875E2;strokeColor=#ffffff;points=[[0.005,0.63,0],[0.1,0.2,0],[0.9,0.2,0],[0.5,0,0],[0.995,0.63,0],[0.72,0.99,0],[0.5,1,0],[0.28,0.99,0]];shape=mxgraph.kubernetes.icon2;kubernetesLabel=1;prIcon=pod" vertex="1" parent="1">
          <mxGeometry x="580" y="741" width="50" height="48" as="geometry" />
        </mxCell>
        <mxCell id="wj3YC0adMSgMcqP3sG2V-21" value="&lt;br&gt;&lt;br&gt;&lt;br&gt;&lt;br&gt;&lt;br&gt;Nginx Pods" style="aspect=fixed;sketch=0;html=1;dashed=0;whitespace=wrap;fillColor=#2875E2;strokeColor=#ffffff;points=[[0.005,0.63,0],[0.1,0.2,0],[0.9,0.2,0],[0.5,0,0],[0.995,0.63,0],[0.72,0.99,0],[0.5,1,0],[0.28,0.99,0]];shape=mxgraph.kubernetes.icon2;kubernetesLabel=1;prIcon=pod" vertex="1" parent="1">
          <mxGeometry x="670" y="740" width="50" height="48" as="geometry" />
        </mxCell>
        <mxCell id="wj3YC0adMSgMcqP3sG2V-22" value="" style="aspect=fixed;sketch=0;html=1;dashed=0;whitespace=wrap;fillColor=#2875E2;strokeColor=#ffffff;points=[[0.005,0.63,0],[0.1,0.2,0],[0.9,0.2,0],[0.5,0,0],[0.995,0.63,0],[0.72,0.99,0],[0.5,1,0],[0.28,0.99,0]];shape=mxgraph.kubernetes.icon2;kubernetesLabel=1;prIcon=pod" vertex="1" parent="1">
          <mxGeometry x="760" y="740" width="50" height="48" as="geometry" />
        </mxCell>
        <mxCell id="wj3YC0adMSgMcqP3sG2V-26" value="" style="shape=flexArrow;endArrow=classic;startArrow=classic;html=1;rounded=0;" edge="1" parent="1">
          <mxGeometry width="100" height="100" relative="1" as="geometry">
            <mxPoint x="604.5" y="700" as="sourcePoint" />
            <mxPoint x="604.5" y="580" as="targetPoint" />
          </mxGeometry>
        </mxCell>
        <mxCell id="wj3YC0adMSgMcqP3sG2V-27" value="" style="shape=flexArrow;endArrow=classic;startArrow=classic;html=1;rounded=0;" edge="1" parent="1">
          <mxGeometry width="100" height="100" relative="1" as="geometry">
            <mxPoint x="700" y="700" as="sourcePoint" />
            <mxPoint x="700" y="580" as="targetPoint" />
          </mxGeometry>
        </mxCell>
        <mxCell id="wj3YC0adMSgMcqP3sG2V-28" value="" style="shape=flexArrow;endArrow=classic;startArrow=classic;html=1;rounded=0;" edge="1" parent="1">
          <mxGeometry width="100" height="100" relative="1" as="geometry">
            <mxPoint x="790" y="700" as="sourcePoint" />
            <mxPoint x="790" y="580" as="targetPoint" />
          </mxGeometry>
        </mxCell>
      </root>
    </mxGraphModel>
  </diagram>
</mxfile>
